<svg width="32" height="32" viewBox="0 0 32 32" fill="none" xmlns="http://www.w3.org/2000/svg">
<path d="M28.25 22.5625V20.6875H26.375V19.75C26.375 16.4497 23.9261 13.7111 20.75 13.2548V11.3125H18.875V13.2548C15.699 13.7111 13.25 16.4497 13.25 19.75V20.6875H11.375V22.5625H28.25ZM15.125 19.75C15.125 17.1653 17.2278 15.0625 19.8125 15.0625C22.3972 15.0625 24.5 17.1653 24.5 19.75V20.6875H15.125V19.75Z" fill="#787878"/>
<path d="M20.75 0H0V26.3125H7.625V32H32V5.625H20.75V0ZM7.625 24.4375H1.875V1.875H15.8412L7.625 5.98306V24.4375ZM18.875 2.45444V5.625H12.5338L18.875 2.45444ZM30.125 7.5V30.125H9.5V7.5H30.125Z" fill="#787878"/>
<path d="M13.25 26.3125H26.375V28.1875H13.25V26.3125Z" fill="#787878"/>
</svg>
