<svg width="19" height="20" viewBox="0 0 19 20" fill="none" xmlns="http://www.w3.org/2000/svg">
<path d="M3.9555 8.18356L2.09424 13.1482V13.1486C2.5497 14.9682 3.55082 16.5767 4.96798 17.79L7.30328 16.9143C4.82282 14.6927 3.59852 11.4248 3.9555 8.18356Z" fill="#F92424"/>
<path d="M1.46389 14.8288L0.037251 18.6328C-0.133264 19.0871 0.311212 19.5365 0.76895 19.3645L3.77873 18.236C2.7692 17.2562 1.98609 16.0885 1.46389 14.8288Z" fill="#F92424"/>
<path d="M7.94543 7.72057L5.82384 5.59898C4.10369 9.47922 5.27967 13.9143 8.52518 16.4562L10.7896 15.6071C8.80088 13.5533 7.72523 10.6867 7.94543 7.72057Z" fill="#F92424"/>
<path d="M9.05518 8.8304C9.14233 11.2422 10.1927 13.5215 11.9698 15.1641H11.9702L13.6299 14.5419C14.0175 14.3964 14.1236 13.8989 13.8322 13.6075L9.05518 8.8304Z" fill="#F92424"/>
<path d="M13.2065 10.6161C13.4285 10.8381 13.7884 10.8381 14.0103 10.6161C16.1487 8.47778 18.2308 9.13888 18.2516 9.14578C18.5494 9.24502 18.8713 9.08409 18.9706 8.78629C19.0699 8.48857 18.9089 8.1666 18.6111 8.06733C18.499 8.03 15.8362 7.18266 13.2066 9.8123C12.9846 10.0342 12.9845 10.3942 13.2065 10.6161Z" fill="#F92424"/>
<path d="M9.58948 6.19501C12.2192 3.56567 11.3716 0.902606 11.3344 0.790445C11.2351 0.492612 10.9131 0.331949 10.6152 0.431227C10.3178 0.530504 10.1567 0.852209 10.256 1.15004C10.2628 1.17088 10.924 3.25306 8.78541 5.39132C8.56484 5.61189 8.5626 5.97152 8.78541 6.19501C9.00856 6.41812 9.36811 6.41638 9.58948 6.19501Z" fill="#F92424"/>
<path d="M10.7951 7.40086C10.5732 7.62283 10.5732 7.9827 10.7951 8.20467C11.0151 8.42463 11.3724 8.42751 11.5956 8.20804C11.8892 8.06174 12.8006 8.61049 13.3071 8.10418C13.8081 7.60309 13.2758 6.71024 13.4088 6.39732C13.7221 6.26402 14.6146 6.79663 15.1156 6.29562C15.6168 5.79453 15.0844 4.90168 15.2174 4.58873C15.5312 4.45539 16.4232 4.98807 16.9242 4.48703C17.4254 3.98594 16.893 3.09308 17.026 2.78013C17.3379 2.64747 18.2322 3.17895 18.7329 2.67839C19.2392 2.17204 18.6915 1.25903 18.8367 0.966915C19.0553 0.744715 19.0542 0.387353 18.8333 0.166479C18.6114 -0.0554931 18.2515 -0.0554931 18.0295 0.166479C17.5815 0.614479 17.6692 1.24694 17.7536 1.69911C17.3014 1.61472 16.669 1.52708 16.221 1.97504C15.773 2.42304 15.8606 3.0555 15.945 3.50766C15.4928 3.42332 14.8603 3.33559 14.4124 3.78363C13.9644 4.23163 14.0521 4.86409 14.1364 5.31626C13.6842 5.23187 13.0518 5.14419 12.6038 5.59219C12.1558 6.04019 12.2435 6.67265 12.3278 7.12482C11.8756 7.04051 11.2431 6.95286 10.7951 7.40086Z" fill="#F92424"/>
<path d="M14.0103 2.57795C14.2323 2.35598 14.2323 1.99612 14.0103 1.77415C13.7884 1.55217 13.4285 1.55217 13.2065 1.77415C12.9845 1.99612 12.9845 2.35598 13.2065 2.57795C13.4285 2.79993 13.7884 2.79993 14.0103 2.57795Z" fill="#F92424"/>
<path d="M17.6275 6.76354C17.9414 6.76354 18.1958 6.50906 18.1958 6.19515C18.1958 5.88124 17.9414 5.62677 17.6275 5.62677C17.3136 5.62677 17.0591 5.88124 17.0591 6.19515C17.0591 6.50906 17.3136 6.76354 17.6275 6.76354Z" fill="#F92424"/>
<path d="M16.4219 11.42C16.1999 11.6419 16.1999 12.0018 16.4219 12.2238C16.6438 12.4457 17.0037 12.4457 17.2257 12.2238C17.4476 12.0018 17.4476 11.6419 17.2257 11.42C17.0037 11.198 16.6438 11.198 16.4219 11.42Z" fill="#F92424"/>
<path d="M8.38362 3.38177C8.60559 3.1598 8.60559 2.79994 8.38362 2.57796C8.16164 2.35599 7.80178 2.35599 7.57981 2.57796C7.35784 2.7999 7.35784 3.1598 7.57981 3.38177C7.80178 3.60374 8.16168 3.60374 8.38362 3.38177Z" fill="#F92424"/>
</svg>
