<svg width="12" height="12" viewBox="0 0 12 12" fill="none" xmlns="http://www.w3.org/2000/svg">
<path d="M11.5714 0H6.8572C6.74354 2.51109e-05 6.63456 0.0451997 6.5542 0.12558L0.125698 6.55398C-0.0417695 6.72124 -0.0419202 6.99259 0.125372 7.16006C0.125472 7.16016 0.125598 7.16028 0.125698 7.16038L4.83993 11.8745C5.00729 12.0418 5.27857 12.0418 5.44591 11.8745L11.8744 5.44613C11.9549 5.36568 12.0001 5.25652 12 5.14272V0.428568C12 0.191873 11.8081 0 11.5714 0ZM9.00002 3.85704C8.52665 3.85704 8.1429 3.47329 8.1429 2.99993C8.1429 2.52656 8.52665 2.14282 9.00002 2.14282C9.4734 2.14282 9.85715 2.52656 9.85715 2.99993C9.85715 3.47329 9.4734 3.85704 9.00002 3.85704Z" fill="#A3B47B"/>
</svg>
